<svg width="39" height="60" viewBox="0 0 39 60" fill="none" xmlns="http://www.w3.org/2000/svg">
<rect width="39" height="60" fill="#212428"/>
<path d="M24.7627 6.81633C25.1207 6.81633 25.2997 7.10124 25.2997 7.67103C25.2979 7.89612 25.2176 8.11361 25.0725 8.28641C24.8717 8.5389 24.5382 8.7654 24.0721 8.9659C23.8418 9.06363 23.6062 9.14853 23.3664 9.22017C23.3839 9.01972 23.4088 8.81997 23.4411 8.62135C23.5341 8.05833 23.68 7.62687 23.8787 7.32701C23.968 7.17219 24.0967 7.04348 24.2519 6.95384C24.4071 6.86419 24.5832 6.81677 24.7627 6.81633ZM29.88 38.5609C29.7636 38.5006 29.6508 38.4335 29.5422 38.3601C29.215 38.1375 28.9806 37.8038 28.8833 37.4215C28.8214 37.2011 28.7904 36.953 28.7904 36.6774C28.7832 36.3789 28.8431 36.0827 28.9658 35.8102C29.0884 35.5378 29.2707 35.296 29.4993 35.1026C29.6135 35.0035 29.7356 34.9138 29.8645 34.8344C30.0944 34.6901 30.335 34.5631 30.5841 34.4546C30.8555 34.3375 31.1184 34.2561 31.373 34.2105C31.5308 34.1818 31.691 34.1671 31.8515 34.1667C32.1022 34.1647 32.352 34.1974 32.5936 34.2639C32.8823 34.3444 33.1509 34.4842 33.382 34.6742C33.543 34.8035 33.6802 34.9597 33.7875 35.1357C33.9297 35.3761 34.0031 35.6506 33.9996 35.9295C34.0049 36.3155 33.9583 36.7005 33.861 37.0743C33.6197 37.9475 33.0635 38.5018 32.1925 38.7372C31.8356 38.8284 31.4681 38.8723 31.0996 38.8675C30.6741 38.8655 30.2555 38.7602 29.88 38.5609ZM13.1091 53.0769C12.0351 53.0769 11.1579 52.5783 10.4777 51.5812C10.0709 50.9383 9.75513 50.2426 9.53951 49.5139C9.12672 48.1713 8.92031 46.5455 8.92031 44.6368C8.92035 44.5272 8.9216 44.4177 8.92407 44.3082C8.92978 41.4742 9.97927 38.7404 11.874 36.624C12.4579 36.0029 13.0193 35.4411 13.5581 34.9386C13.9514 34.5701 14.3569 34.2146 14.7739 33.8729C15.669 33.1429 16.8505 32.2614 18.3183 31.2287C18.3124 31.3236 18.3065 31.4185 18.3006 31.5134C18.2283 32.6743 18.1178 34.4848 17.9693 36.9445C17.8082 39.6154 17.6202 42.3042 17.4054 45.0107C17.3414 45.8503 17.2395 46.6866 17.0998 47.5171C16.7901 49.3141 16.3179 50.6756 15.6831 51.6015C15.4184 52.0473 15.0422 52.4174 14.5912 52.676C14.1402 52.9345 13.6297 53.0726 13.1091 53.0769ZM18.4794 28.6646C15.629 30.5178 13.2357 32.3396 11.2999 34.1298C10.2303 35.1069 9.23722 36.164 8.32958 37.2917C7.85374 37.8885 7.41693 38.5152 7.02192 39.1678C5.71052 41.277 5.01074 43.7059 5 46.1859C5 48.3938 5.66238 50.4149 6.98701 52.2489C8.31164 54.0829 10.1018 55 12.3573 55C12.7486 55.0007 13.1397 54.979 13.5286 54.9348C14.6333 54.8244 15.7009 54.4769 16.6576 53.9164C17.6143 53.3559 18.4374 52.5956 19.0702 51.688C20.6812 49.4801 21.6121 46.2748 21.8627 42.0727C21.9211 40.8576 22.0502 37.644 22.2499 32.4322C22.3001 31.1229 22.3501 29.8136 22.3998 28.5043C23.439 27.8726 24.5073 27.2891 25.601 26.7559C26.8926 26.1239 28.2277 25.5836 29.5959 25.1389C29.6376 25.1252 29.6784 25.1093 29.7184 25.0914C29.9547 24.9849 30.1108 24.8186 30.1867 24.5925C30.224 24.4756 30.2422 24.3535 30.2404 24.2308C30.2411 24.1824 30.2279 24.1347 30.2023 24.0935C30.1246 23.97 29.9285 23.8948 29.6142 23.8681C29.5188 23.8603 29.4231 23.8566 29.3274 23.8569C28.8617 23.8569 28.1492 24.0188 27.1901 24.3425C26.871 24.4505 26.5541 24.5647 26.2395 24.6849C25.492 24.9694 24.7944 25.2613 24.1467 25.5604C23.5708 25.8244 23.0059 26.1115 22.4535 26.421C22.4565 26.31 22.461 26.1991 22.4669 26.0882C22.5181 24.975 22.7193 21.146 23.0705 14.6016C23.1332 13.431 23.1961 12.2604 23.259 11.0898C23.5616 11.0078 23.8602 10.9115 24.1537 10.8014C24.6746 10.6041 25.123 10.3756 25.4989 10.116C25.9517 9.83479 26.3242 9.4426 26.5808 8.97708C26.8374 8.51156 26.9696 7.98825 26.9645 7.45736C26.9649 7.31929 26.9561 7.18134 26.9382 7.04443C26.8788 6.51707 26.6309 6.02848 26.2395 5.66783C25.9261 5.38227 25.543 5.18319 25.1284 5.09037C24.8588 5.02835 24.5829 4.99805 24.3062 5.0001C23.5007 5.0001 22.5966 5.44527 21.5942 6.33556C21.0409 6.82589 20.5966 7.42579 20.2898 8.09678C20.0287 8.67451 19.853 9.28682 19.7683 9.91462C19.1993 10.0385 18.6341 10.179 18.0734 10.3361C15.6035 11.0305 13.5906 11.9762 12.0351 13.1732C11.8039 13.3506 11.5813 13.5388 11.3681 13.7373C10.6756 14.3497 10.1228 15.1025 9.74697 15.9449C9.3711 16.7874 9.18078 17.7002 9.18883 18.6219C9.18885 18.6587 9.18938 18.6956 9.19044 18.7324C9.21478 19.5946 9.52914 20.1299 10.1335 20.3382C10.3485 20.4082 10.5737 20.442 10.7999 20.4381C11.1425 20.4429 11.478 20.3407 11.7591 20.1459C11.9372 20.0196 12.0938 19.8658 12.223 19.6902C12.3479 19.5232 12.4504 19.3408 12.5281 19.1475C12.6212 18.9192 12.6892 18.6648 12.7321 18.3841C12.77 18.1268 12.7883 17.867 12.7869 17.6069C12.7643 16.8148 12.9401 16.0294 13.2985 15.3217C13.6569 14.6139 14.1866 14.0059 14.84 13.5524C15.4397 13.113 16.1708 12.7405 17.0332 12.4349C17.8711 12.1459 18.7322 11.9282 19.6072 11.7843L18.4794 28.6646Z" fill="#F0DE1D"/>
</svg>
